<svg xmlns="http://www.w3.org/2000/svg" viewBox="0 0 800 1000" preserveAspectRatio="xMidYMid slice">
  <defs>
    <linearGradient id="sky" x1="0" y1="0" x2="0" y2="1">
      <stop offset="0%" stop-color="#e8c084"/>
      <stop offset="45%" stop-color="#c87533"/>
      <stop offset="100%" stop-color="#7a3c14"/>
    </linearGradient>
    <linearGradient id="kasbah" x1="0" y1="0" x2="0" y2="1">
      <stop offset="0%" stop-color="#a0522d"/>
      <stop offset="100%" stop-color="#2a1810"/>
    </linearGradient>
  </defs>
  <rect width="800" height="1000" fill="url(#sky)"/>
  <circle cx="620" cy="260" r="70" fill="#fff5e0" opacity="0.9"/>
  <!-- Kasbah / ksar silhouette -->
  <g fill="url(#kasbah)">
    <rect x="0" y="620" width="120" height="380"/>
    <rect x="120" y="560" width="100" height="440"/>
    <polygon points="120,560 170,510 220,560"/>
    <rect x="220" y="600" width="140" height="400"/>
    <polygon points="220,600 290,540 360,600"/>
    <rect x="360" y="540" width="110" height="460"/>
    <polygon points="360,540 415,470 470,540"/>
    <polygon points="370,500 380,470 390,500"/>
    <polygon points="440,500 450,470 460,500"/>
    <rect x="470" y="610" width="130" height="390"/>
    <polygon points="470,610 535,550 600,610"/>
    <rect x="600" y="650" width="100" height="350"/>
    <rect x="700" y="600" width="100" height="400"/>
    <polygon points="700,600 750,540 800,600"/>
  </g>
  <!-- Foreground -->
  <rect x="0" y="930" width="800" height="70" fill="#1a0f08"/>
</svg>
